<?xml version="1.0" standalone="no"?>
<!DOCTYPE svg PUBLIC "-//W3C//DTD SVG 20010904//EN"
 "http://www.w3.org/TR/2001/REC-SVG-20010904/DTD/svg10.dtd">
<svg version="1.0" xmlns="http://www.w3.org/2000/svg"
 width="223.000000pt" height="223.000000pt" viewBox="0 0 223.000000 223.000000"
 preserveAspectRatio="xMidYMid meet">
<metadata>
Created by potrace 1.11, written by Peter Selinger 2001-2013
</metadata>
<g transform="translate(0.000000,223.000000) scale(0.100000,-0.100000)"
fill="#000000" stroke="none">
<path d="M168 2203 c-10 -2 -18 -9 -18 -14 0 -5 -6 -9 -14 -9 -8 0 -21 -6 -28
-13 -7 -7 -21 -16 -30 -20 -10 -3 -18 -13 -18 -22 0 -8 -4 -15 -10 -15 -5 0
-12 -11 -16 -24 -3 -14 -12 -27 -20 -30 -22 -8 -21 -1878 1 -1900 8 -8 15 -20
15 -26 0 -6 7 -13 15 -16 8 -4 15 -12 15 -20 0 -8 5 -14 10 -14 6 0 22 -12 36
-28 l26 -27 976 0 c771 0 976 3 980 13 2 6 10 12 18 12 8 0 14 7 14 15 0 8 7
15 15 15 8 0 15 7 15 15 0 8 7 15 15 15 8 0 15 6 15 14 0 8 6 16 12 19 19 6
19 1928 1 1935 -7 2 -13 8 -13 14 0 19 -77 88 -98 88 -11 0 -22 7 -26 15 -5
13 -118 15 -938 14 -513 -1 -941 -3 -950 -6z m1653 -105 c1 -7 1 -17 0 -21 -1
-4 -3 -16 -4 -26 -2 -11 -8 -25 -14 -33 -7 -8 -12 -23 -12 -33 1 -37 -8 -77
-18 -83 -6 -4 -9 -15 -7 -25 1 -10 -5 -26 -14 -36 -9 -9 -18 -26 -20 -36 -5
-35 -8 -43 -21 -59 -8 -9 -11 -19 -8 -23 6 -5 -19 -59 -33 -73 -6 -6 -12 -30
-13 -47 0 -7 -6 -14 -14 -17 -7 -3 -13 -14 -13 -25 0 -11 -5 -21 -12 -23 -6
-2 -13 -14 -15 -26 -1 -12 -11 -30 -20 -41 -10 -10 -34 -38 -53 -62 -57 -69
-116 -129 -128 -129 -7 0 -12 -7 -12 -15 0 -8 -7 -15 -15 -15 -8 0 -15 -4 -15
-9 0 -5 -10 -13 -22 -17 -13 -4 -26 -12 -30 -18 -4 -6 -8 1 -8 15 0 20 6 28
24 33 25 6 166 138 166 156 0 5 4 10 8 10 4 0 19 18 32 40 14 22 28 40 32 40
3 0 9 14 13 30 4 17 11 30 16 30 6 0 8 4 4 9 -3 6 4 15 15 21 11 6 18 15 15
20 -3 5 -1 11 5 15 6 4 8 10 5 15 -3 4 2 11 11 14 9 4 14 9 11 13 -4 3 -2 12
4 20 6 7 8 13 4 13 -4 0 -2 7 5 15 7 8 9 15 5 15 -5 0 0 9 10 20 10 11 15 20
10 20 -4 0 -3 6 3 13 5 6 8 22 6 35 -2 13 1 22 9 22 7 0 14 11 15 25 3 38 6
47 22 65 9 9 15 31 15 50 -1 19 2 38 7 41 4 3 10 19 11 36 2 16 7 35 11 42 10
15 26 14 27 -1z m-292 -47 c7 -5 10 -14 7 -20 -4 -6 -3 -11 3 -11 12 0 11 -59
-1 -66 -4 -3 -6 -10 -3 -15 4 -5 0 -9 -7 -9 -7 0 -19 -14 -27 -32 -8 -17 -22
-39 -31 -48 -9 -9 -27 -38 -41 -64 -44 -87 -50 -96 -60 -96 -5 0 -9 -9 -9 -21
0 -11 -5 -17 -10 -14 -6 3 -13 -2 -17 -12 -4 -10 -13 -24 -20 -31 -7 -7 -13
-22 -13 -33 0 -11 -4 -18 -9 -14 -6 3 -13 -10 -17 -30 -3 -19 -10 -32 -15 -29
-5 3 -12 -3 -16 -13 -4 -10 -13 -24 -20 -31 -10 -10 -13 -59 -13 -193 l0 -179
-180 0 -180 0 0 150 c0 83 -3 150 -7 150 -12 0 -76 -24 -100 -38 -12 -7 -33
-12 -46 -12 -14 0 -27 -6 -30 -13 -8 -21 -101 -22 -121 -2 -9 9 -14 21 -11 25
3 5 -4 14 -15 20 -11 6 -18 15 -15 20 3 5 0 12 -7 17 -15 9 -33 37 -48 71 -5
12 -13 22 -17 22 -5 0 -17 17 -28 38 -11 20 -27 45 -37 55 -10 10 -16 23 -12
28 3 5 0 17 -7 25 -10 12 -10 17 0 23 6 4 11 12 10 17 -4 24 5 30 51 29 33 0
50 -4 50 -12 0 -7 5 -13 11 -13 5 0 8 -4 4 -9 -3 -6 4 -15 15 -21 11 -6 20
-17 20 -24 0 -8 7 -16 15 -20 8 -3 14 -9 13 -13 -1 -4 3 -18 10 -30 7 -13 10
-23 6 -23 -3 0 4 -9 17 -20 13 -10 21 -19 16 -20 -4 0 2 -9 13 -20 23 -23 46
-25 87 -8 15 6 31 11 36 10 4 -1 7 3 7 9 0 6 9 9 19 6 11 -3 28 1 39 9 11 7
22 10 26 7 3 -3 6 -1 6 6 0 7 5 9 10 6 6 -3 13 1 16 10 4 9 13 14 20 11 8 -3
14 -1 14 4 0 4 16 7 36 5 21 -2 37 2 40 9 3 9 33 12 96 12 l92 -1 8 33 c5 18
13 30 18 27 5 -3 12 6 16 20 3 14 10 25 14 25 5 0 12 9 15 21 4 11 9 18 12 15
7 -6 52 82 53 102 0 7 5 10 10 7 6 -3 10 1 10 9 0 9 6 16 14 16 7 0 16 13 19
28 3 15 17 39 30 54 13 14 27 33 30 42 4 9 11 16 17 16 6 0 9 4 6 8 -3 5 4 19
15 30 21 23 72 29 98 13z m-473 -157 c7 3 18 -3 24 -14 6 -11 17 -20 24 -20
17 0 26 -31 26 -90 0 -55 -9 -92 -21 -84 -5 3 -9 -1 -9 -9 0 -8 -10 -18 -22
-22 -33 -10 -128 -13 -134 -3 -3 5 -10 6 -15 3 -5 -4 -14 6 -19 20 -5 14 -14
24 -19 21 -13 -8 -24 67 -16 106 4 18 18 43 31 55 13 12 24 27 24 32 0 6 6 8
13 5 7 -2 24 -1 38 4 15 6 31 6 42 0 10 -5 25 -7 33 -4z m434 -754 c11 -11 19
-21 19 -22 -5 -8 14 -48 21 -48 6 0 8 -14 6 -30 -2 -17 1 -33 6 -36 5 -3 7
-12 4 -20 -3 -8 1 -14 10 -14 11 0 14 -10 11 -45 -2 -25 1 -45 6 -45 5 0 7 -9
4 -20 -3 -12 0 -20 8 -20 8 0 12 -12 10 -35 -1 -20 2 -38 7 -41 4 -3 6 -9 3
-14 -3 -5 0 -14 7 -22 19 -20 20 -38 3 -38 -13 0 -19 -12 -16 -32 2 -13 -33
-24 -69 -23 -57 3 -61 5 -55 15 3 6 -1 10 -9 10 -11 0 -16 9 -16 29 0 16 -5
31 -10 33 -6 2 -13 30 -16 63 -4 33 -11 63 -18 67 -6 4 -11 13 -12 20 0 7 -2
21 -2 31 -2 22 -54 23 -76 2 -8 -8 -21 -15 -30 -15 -8 0 -21 -6 -28 -13 -7 -7
-33 -19 -58 -26 -25 -7 -47 -17 -50 -21 -3 -5 -18 -11 -34 -14 -16 -3 -32 -10
-36 -15 -7 -12 -80 -12 -80 1 0 20 -30 6 -36 -17 -3 -14 -10 -25 -14 -25 -4 0
-11 -16 -14 -35 -4 -19 -11 -35 -16 -35 -4 0 -11 -13 -15 -30 -4 -16 -11 -30
-16 -30 -5 0 -9 -11 -9 -24 0 -13 -7 -29 -15 -36 -8 -7 -15 -23 -15 -37 0 -13
-7 -26 -15 -29 -8 -4 -15 -16 -15 -28 0 -12 -6 -31 -14 -42 -8 -11 -16 -31
-17 -44 -2 -14 -11 -30 -19 -37 -8 -6 -12 -15 -7 -19 4 -4 -3 -18 -15 -31 -12
-13 -18 -23 -14 -23 5 0 3 -7 -4 -15 -7 -8 -9 -15 -4 -15 5 0 2 -5 -6 -10 -17
-11 -100 -13 -124 -4 -9 3 -13 10 -10 15 3 5 0 9 -5 9 -6 0 -11 7 -11 15 0 8
-4 15 -8 15 -11 0 -8 60 4 68 8 7 13 20 18 50 1 8 7 17 12 20 5 4 11 16 12 27
2 11 7 22 12 25 8 6 23 46 25 71 1 10 9 24 18 33 9 9 14 23 11 31 -3 7 3 18
15 24 13 7 18 18 16 32 -2 12 2 28 10 36 8 8 15 21 15 29 0 9 7 22 15 30 8 9
15 24 15 35 0 10 5 19 10 19 6 0 10 9 10 20 0 11 4 20 10 20 5 0 7 7 4 15 -4
8 -2 15 4 15 6 0 13 14 17 30 4 17 10 30 15 30 5 0 11 14 15 30 l7 30 184 0
184 0 0 26 c0 32 20 53 59 60 17 4 31 10 31 15 0 4 18 13 40 19 22 6 40 15 40
20 0 19 79 11 100 -10z m-280 -691 l0 -309 -25 0 -25 0 0 303 c0 167 2 306 5
308 2 3 13 5 25 6 20 2 20 -2 20 -308z"/>
</g>
</svg>
